<svg id="Vrstva_1" data-name="Vrstva 1" xmlns="http://www.w3.org/2000/svg" viewBox="0 0 72.3 84.5">
  <defs>
    <style>
      .cls-1 {
        fill: #facc48;
      }

      .cls-2, .cls-3 {
        isolation: isolate;
      }

      .cls-2 {
        font-size: 6.53px;
        fill: #f21d2f;
        font-family: Arial-Black, Arial Black;
      }

      .cls-3 {
        font-size: 6.6px;
        fill: #fff;
        font-family: ArialMT, Arial;
      }
    </style>
  </defs>
  <title>logo1</title>
  <g>
    <rect width="72.3" height="84.5"/>
    <g>
      <g>
        <g>
          <g>
            <ellipse class="cls-1" cx="32.8" cy="29.5" rx="3.2" ry="3.3"/>
            <polygon class="cls-1" points="24.7 5.5 18.7 5.4 19.1 8.5 23.6 8.5 28.8 24.7 48 24.7 50.5 10.1 27.7 10 24.7 5.5"/>
          </g>
          <ellipse class="cls-1" cx="43.4" cy="29.6" rx="3.2" ry="3.3"/>
          <rect x="30.2" y="12.5" width="16.2" height="3.2"/>
          <rect x="30.2" y="18.6" width="16.1" height="3.2"/>
        </g>
        <rect class="cls-1" x="33.3" y="11.5" width="2.9" height="10.6"/>
        <rect class="cls-1" x="40.1" y="11.8" width="2.9" height="10.6"/>
        <rect class="cls-1" x="28.4" y="13.7" width="19.3" height="0.9"/>
        <rect class="cls-1" x="28.4" y="19.6" width="19.3" height="0.9"/>
        <rect class="cls-1" x="44.2" y="10.3" width="0.8" height="14.1"/>
        <rect class="cls-1" x="37.7" y="10.1" width="0.8" height="14.1"/>
        <rect class="cls-1" x="31.3" y="10.5" width="0.8" height="14.1"/>
      </g>
      <circle cx="32.8" cy="29.5" r="1.9"/>
      <circle cx="43.4" cy="29.6" r="1.9"/>
    </g>
    <text class="cls-2" transform="translate(25.2 52.48)">e-shop </text>
    <g>
      <text class="cls-3" transform="translate(7.01 64.12)">bla la bla bla lblalakal</text>
      <text class="cls-3" transform="translate(6.85 71.36)">bla la bla bla lblalakal</text>
      <text class="cls-3" transform="translate(7.19 77.85)">bla la bla bla lblalakal</text>
    </g>
  </g>
</svg>
