<svg id="Vrstva_1" data-name="Vrstva 1" xmlns="http://www.w3.org/2000/svg" viewBox="0 0 72.3 84.5">
  <defs>
    <style>
      .cls-1 {
        fill: #facc48;
      }

      .cls-2, .cls-3 {
        isolation: isolate;
      }

      .cls-2 {
        font-size: 6.53px;
        fill: #f21d2f;
        font-family: Arial-Black, Arial Black;
      }

      .cls-3 {
        font-size: 6.6px;
        fill: #fff;
        font-family: ArialMT, Arial;
      }

      .cls-4 {
        letter-spacing: -0.03em;
      }
    </style>
  </defs>
  <title>logo3</title>
  <g>
    <g>
      <rect width="72.3" height="84.5"/>
      <g>
        <g>
          <g>
            <g>
              <polygon class="cls-1" points="51.1 24.1 37.6 11.6 37.6 33.6 41.5 33.6 41.5 42.3 50.9 42.5 51.1 24.1"/>
              <polygon class="cls-1" points="37.6 5 37.6 9.2 55.1 24.8 57.1 22.4 37.6 5"/>
            </g>
            <g>
              <polygon class="cls-1" points="24.1 24.1 37.6 11.6 37.6 33.6 33.7 33.6 33.7 42.3 24.3 42.5 24.1 24.1"/>
              <polygon class="cls-1" points="37.6 5 37.6 9.2 20.1 24.8 18.1 22.4 37.6 5"/>
            </g>
          </g>
          <polygon class="cls-1" points="26 13.4 31 8.7 30.9 5.9 26.1 5.9 26 13.4"/>
        </g>
        <rect class="cls-1" x="24.3" y="25.5" width="26.6" height="17.5"/>
        <polygon points="33 34.7 32.9 41.2 42.3 41.2 42.4 34.7 33 34.7"/>
        <path d="M262,155.08h-1.7v-2.4a2.8,2.8,0,0,1,1.7-2.6,3.41,3.41,0,0,1,3.1-.3,3.59,3.59,0,0,1,1.9,1.7,5,5,0,0,1,.4,1.6l-1.5.1a2,2,0,0,0-1.1-1.8,2.14,2.14,0,0,0-1.4-.1,2.07,2.07,0,0,0-1.3,1.3C262,153.08,262,155.08,262,155.08Z" transform="translate(-226.2 -121.38)"/>
        <polygon class="cls-1" points="37.3 38.1 37 40.4 38.8 40.4 38.3 38.1 37.3 38.1"/>
        <circle class="cls-1" cx="37.8" cy="37" r="1.3"/>
      </g>
      <text class="cls-2" transform="translate(20.1 63.97)">domů/bytů</text>
      <g>
        <text class="cls-3" transform="translate(7.19 71.76)">bla la bla bla lblalakal</text>
        <text class="cls-3" transform="translate(7.03 79)">bla la bla bla lblalakal</text>
      </g>
    </g>
    <text class="cls-2" transform="translate(8.68 56.27)">ot<tspan class="cls-4" x="7.25" y="0">e</tspan><tspan x="11.44" y="0">vírání bjektů</tspan></text>
  </g>
</svg>
