<svg id="Vrstva_1" data-name="Vrstva 1" xmlns="http://www.w3.org/2000/svg" viewBox="0 0 72.3 84.5">
  <defs>
    <style>
      .cls-1 {
        fill: #facc48;
      }

      .cls-2, .cls-7 {
        isolation: isolate;
      }

      .cls-2 {
        font-size: 6.53px;
        fill: #f21d2f;
        font-family: Arial-Black, Arial Black;
      }

      .cls-3 {
        letter-spacing: -0.03em;
      }

      .cls-4 {
        letter-spacing: -0.03em;
      }

      .cls-5 {
        letter-spacing: 0.02em;
      }

      .cls-6 {
        letter-spacing: 0em;
      }

      .cls-7 {
        font-size: 6.6px;
        fill: #fff;
        font-family: ArialMT, Arial;
      }
    </style>
  </defs>
  <title>logo6</title>
  <g>
    <rect width="72.3" height="84.5"/>
    <g>
      <g>
        <path class="cls-1" d="M264.76,127.25s-6-.1-6.4.2-1.4.5-1.3,4.9-.1,6.8-.1,6.8l-5.7,7.9,1,.7,4.5-6,.1,7.3-4.8,6.7,1,1,3.8-5.4.3,11.3s.2,1,1.6,1,5.8,0,5.8,0Z" transform="translate(-226.86 -122.25)"/>
        <path class="cls-1" d="M263.66,127.25s6-.1,6.4.2,1.4.5,1.3,4.9.1,6.8.1,6.8l5.7,7.9-1,.7-4.5-6-.1,7.3,4.8,6.7-1,1-3.8-5.4-.3,11.3s-.2,1-1.6,1h-5.8Z" transform="translate(-226.86 -122.25)"/>
      </g>
      <path d="M269.86,134.15a23.84,23.84,0,0,0-10.9,0s.6,6,.9,6.3,8.9.1,8.9.1S269.86,135.15,269.86,134.15Z" transform="translate(-226.86 -122.25)"/>
      <path d="M263.86,155.65l-3.7-.1a20.73,20.73,0,0,0-.7,5.1s3.2,1.6,9.4.2c0,0-.2-4.6-.7-5.2Z" transform="translate(-226.86 -122.25)"/>
      <polygon points="31.2 19 32.2 21.1 32.4 32 31.2 34.2 31.2 19"/>
      <polygon points="43.3 19 42.2 21.2 42.1 32 43.3 34.3 43.3 19"/>
      <rect class="cls-1" x="30.1" y="25.7" width="14.4" height="1.5"/>
    </g>
    <text class="cls-2" transform="translate(8.51 51.59)">ot<tspan class="cls-3" x="7.25" y="0">e</tspan><tspan x="11.44" y="0">vírání </tspan><tspan class="cls-4" x="33.56" y="0">v</tspan><tspan class="cls-5" x="37.38" y="0">o</tspan><tspan class="cls-6" x="41.85" y="0">zidel</tspan></text>
    <g>
      <text class="cls-7" transform="translate(6.66 63.87)">bla la bla bla lblalakal</text>
      <text class="cls-7" transform="translate(6.5 71.12)">bla la bla bla lblalakal</text>
      <text class="cls-7" transform="translate(6.84 77.6)">bla la bla bla lblalakal</text>
    </g>
  </g>
</svg>
