<svg id="Vrstva_1" data-name="Vrstva 1" xmlns="http://www.w3.org/2000/svg" viewBox="0 0 72.3 84.5">
  <defs>
    <style>
      .cls-1 {
        fill: #facc48;
      }

      .cls-2, .cls-3, .cls-6 {
        isolation: isolate;
      }

      .cls-2 {
        font-size: 20.14px;
      }

      .cls-2, .cls-6 {
        font-family: ArialMT, Arial;
      }

      .cls-3 {
        font-size: 6.53px;
        fill: #f21d2f;
        font-family: Arial-Black, Arial Black;
      }

      .cls-4 {
        letter-spacing: 0.02em;
      }

      .cls-5 {
        letter-spacing: 0em;
      }

      .cls-6 {
        font-size: 6.6px;
        fill: #fff;
      }
    </style>
  </defs>
  <title>logo2</title>
  <g>
    <rect width="72.3" height="84.5"/>
    <g>
      <path class="cls-1" d="M261.08,144.88a1.38,1.38,0,0,0-.6-1.1c-1.6-1.1-6.1-4.9-4.1-10.1a7.91,7.91,0,0,1,9-5.5c7.3,1,7.6,8.6,5.9,11.6a11.81,11.81,0,0,1-4.3,4.1l.6.9a1.36,1.36,0,0,1,0,1.5c-.3.5-.8,1.2-1.1,1.6a1.21,1.21,0,0,0-.1,1.4l1,2.1a1.23,1.23,0,0,1-.1,1.3l-.9,1.4a1.38,1.38,0,0,0,.3,1.8h0a1.39,1.39,0,0,1,.4,1.7l-.3.7a1.23,1.23,0,0,0,.1,1.3l.2.3a1.42,1.42,0,0,1-.4,1.9l-2.8,2a1.28,1.28,0,0,1-1.8-.3l-.5-.6a1.14,1.14,0,0,1-.3-.8Z" transform="translate(-227.16 -122.06)"/>
      <circle class="cls-1" cx="36.82" cy="14.12" r="8.3"/>
    </g>
    <text class="cls-2" transform="translate(31.45 22.95) scale(1.03 1)">?</text>
    <text class="cls-3" transform="translate(11.78 48.91)">zt<tspan class="cls-4" x="6.53" y="0">r</tspan><tspan class="cls-5" x="9.54" y="0">acené klíče</tspan></text>
    <g>
      <text class="cls-6" transform="translate(5.26 64.44)">bla la bla bla lblalakal</text>
      <text class="cls-6" transform="translate(5.1 71.68)">bla la bla bla lblalakal</text>
      <text class="cls-6" transform="translate(5.44 78.17)">bla la bla bla lblalakal</text>
    </g>
  </g>
</svg>
