<svg id="Vrstva_1" data-name="Vrstva 1" xmlns="http://www.w3.org/2000/svg" viewBox="0 0 72.3 84.5">
  <defs>
    <style>
      .cls-1 {
        fill: #facc48;
      }

      .cls-2 {
        fill: none;
        stroke: #000;
        stroke-miterlimit: 10;
      }

      .cls-3, .cls-4, .cls-5 {
        isolation: isolate;
      }

      .cls-3 {
        font-size: 12.24px;
        font-family: BodoniSvtyTwoITCTT-Book, Bodoni 72;
      }

      .cls-4 {
        font-size: 6.53px;
        fill: #f21d2f;
        font-family: Arial-Black, Arial Black;
      }

      .cls-5 {
        font-size: 6.6px;
        fill: #fff;
        font-family: ArialMT, Arial;
      }
    </style>
  </defs>
  <title>logo4</title>
  <g>
    <rect width="72.3" height="84.5"/>
    <g>
      <rect class="cls-1" x="26.6" y="28.8" width="22.7" height="2.7"/>
      <g>
        <g>
          <circle class="cls-1" cx="37.6" cy="16" r="11"/>
          <g>
            <line class="cls-2" x1="37.6" y1="5.2" x2="37.6" y2="26.8"/>
            <line class="cls-2" x1="39.9" y1="5.4" x2="35.3" y2="26.6"/>
            <line class="cls-2" x1="42" y1="6.1" x2="33.2" y2="25.9"/>
            <line class="cls-2" x1="44" y1="7.3" x2="31.2" y2="24.8"/>
            <line class="cls-2" x1="45.7" y1="8.8" x2="29.5" y2="23.2"/>
            <line class="cls-2" x1="47" y1="10.6" x2="28.2" y2="21.4"/>
            <line class="cls-2" x1="47.9" y1="12.7" x2="27.3" y2="19.3"/>
            <line class="cls-2" x1="48.4" y1="14.9" x2="26.8" y2="17.1"/>
            <line class="cls-2" x1="48.4" y1="17.2" x2="26.8" y2="14.8"/>
            <line class="cls-2" x1="47.9" y1="19.4" x2="27.3" y2="12.6"/>
            <line class="cls-2" x1="47" y1="21.5" x2="28.3" y2="10.6"/>
            <line class="cls-2" x1="45.6" y1="23.3" x2="29.6" y2="8.7"/>
            <line class="cls-2" x1="44" y1="24.8" x2="31.3" y2="7.2"/>
            <line class="cls-2" x1="42" y1="25.9" x2="33.2" y2="6.1"/>
            <line class="cls-2" x1="39.8" y1="26.6" x2="35.4" y2="5.4"/>
          </g>
        </g>
        <ellipse class="cls-1" cx="37.7" cy="16.1" rx="9.6" ry="9.5"/>
      </g>
      <g>
        <text class="cls-3" transform="translate(32.72 16.37) scale(1.48 1)">1</text>
        <g>
          <path d="M264.6,138.34s-1.8.7-.7,2.1c0,0-.9-.5-1.3.1s-.1,1,.4,1.5.2.9.2.9.3.1.5-.5,1.1,1.3-.6,1.5-2.6,0-2.6-1c0-1.3,1.1-.6.9-.1s.9-1,.5-1.7-1.6-.1-1.6-.1.9-1.9-1.1-1.7l.9,5.7,4.6.1Z" transform="translate(-226.7 -121.44)"/>
          <path d="M264.6,138.34s1.8.7.7,2.1c0,0,.9-.5,1.3.1s.1,1-.4,1.5-.2.9-.2.9-.3.1-.5-.5-1.1,1.3.6,1.5,2.6,0,2.6-1c0-1.3-1.1-.6-.9-.1s-.9-1-.5-1.7,1.6-.1,1.6-.1-.9-1.9,1.1-1.7l-.9,5.7-4.6.1Z" transform="translate(-226.7 -121.44)"/>
        </g>
        <circle class="cls-1" cx="37.9" cy="19.6" r="0.6"/>
      </g>
      <rect class="cls-1" x="25.3" y="36.6" width="22.7" height="2.7"/>
      <rect class="cls-1" x="30.3" y="32.8" width="22.7" height="2.7"/>
    </g>
    <text class="cls-4" transform="translate(27.04 51.99)">ceník</text>
    <g>
      <text class="cls-5" transform="translate(7.76 63.43)">bla la bla bla lblalakal</text>
      <text class="cls-5" transform="translate(7.6 70.68)">bla la bla bla lblalakal</text>
      <text class="cls-5" transform="translate(7.94 77.17)">bla la bla bla lblalakal</text>
    </g>
  </g>
</svg>
