<svg id="Vrstva_1" data-name="Vrstva 1" xmlns="http://www.w3.org/2000/svg" viewBox="0 0 72.3 84.5">
  <defs>
    <style>
      .cls-1 {
        fill: #facc48;
      }

      .cls-2 {
        fill: none;
      }

      .cls-3, .cls-4 {
        isolation: isolate;
      }

      .cls-3 {
        font-size: 6.53px;
        fill: #f21d2f;
        font-family: Arial-Black, Arial Black;
      }

      .cls-4 {
        font-size: 6.6px;
        fill: #fff;
        font-family: ArialMT, Arial;
      }
    </style>
  </defs>
  <title>logo5</title>
  <g>
    <rect width="72.3" height="84.5"/>
    <g>
      <path class="cls-1" d="M264.34,126.09s-5.8-.3-5.9,1.6a3.15,3.15,0,0,0-2.7,2.6c-.3,2.3-.4,9.1.8,11.4a11.69,11.69,0,0,0,4.6,5l.5,6.5.6.5v.6l-.5.6.1,2.4.6,1.1v.8l-.3.7.1.8.4.6v1.1l-.4.3.1,1-.3.2.2,2.5s.9,2,1.7,2.1S264.34,126.09,264.34,126.09Z" transform="translate(-226.74 -121.49)"/>
      <path class="cls-1" d="M263.84,126s5.8-.1,5.9,1.7a3,3,0,0,1,2.6,2.7c.2,2.4.2,9.1-1,11.4a13,13,0,0,1-4.7,4.9l-.6,6.5-.6.5-.1.6.5.6-.2,2.4-.6,1.1v.8l.3.7-.1.8-.4.6v1.1l.3.4-.1,1,.3.2-.3,2.5s-1,1.9-1.7,2.1S263.84,126,263.84,126Z" transform="translate(-226.74 -121.49)"/>
      <path d="M264,128.29c-.9,0-3.2.4-3.4,1.1s.4.6,1.1.5a5.73,5.73,0,0,1,2.8-.4,19.12,19.12,0,0,1,2.7.6c.5.1.9-.5.1-.9A5.19,5.19,0,0,0,264,128.29Z" transform="translate(-226.74 -121.49)"/>
      <path d="M266.84,141.09h-5.7a3.33,3.33,0,0,1-3.3-3.3v-.9a3.33,3.33,0,0,1,3.3-3.3h5.7a3.33,3.33,0,0,1,3.3,3.3v.9A3.4,3.4,0,0,1,266.84,141.09Z" transform="translate(-226.74 -121.49)"/>
      <g>
        <g>
          <rect class="cls-1" x="40.8" y="15.8" width="0.7" height="1.2"/>
          <g>
            <g>
              <path class="cls-1" d="M261.94,138.09a.22.22,0,0,1,.2.2c0,.3,0,.9-.5,1.1a1.17,1.17,0,0,1-1.4-.3c0-.1-.1-.2-.1-.3a.1.1,0,0,0-.1-.1,2.81,2.81,0,0,1-.8-.1c-.4,0-.3-1.2.4-1.9s1.5-.1,2.1-.4.8-.7,1.4-1.2a1.26,1.26,0,0,1,1.1-.4h1.4a1.56,1.56,0,0,1,1,.4c.4.4.4.5.6.6s.2.2.6.2.6,0,.7.1.7,1.3.5,1.5-.8.8-.9.6-.2-.4-.2-.5.1-.1.1-.2l.2-.2.1-.1c0-.2-.1-.6-.3-.7s-.7-.1-.9-.2-.6-.8-1-1a4.87,4.87,0,0,0-2.4,0,3.69,3.69,0,0,0-1.1,1h0a3.22,3.22,0,0,1-.7.4c-.3.1-1.2-.1-1.6.1s-.4.5-.4.8a.22.22,0,0,0,.2.2Z" transform="translate(-226.74 -121.49)"/>
              <line class="cls-2" x1="34.9" y1="16.8" x2="41.5" y2="16.6"/>
              <path class="cls-1" d="M259.94,138.39s-1.1-1.5.9-1.6a3.19,3.19,0,0,0,2.7-1.4s2.5-.8,3,.2c.8,1.7,3.7.8,1.4,2.5Z" transform="translate(-226.74 -121.49)"/>
              <circle class="cls-1" cx="34.5" cy="17.1" r="1.1"/>
              <circle class="cls-1" cx="40" cy="17.1" r="1.1"/>
              <circle class="cls-1" cx="34.5" cy="17.1" r="0.6"/>
              <circle class="cls-1" cx="40" cy="17.1" r="0.6"/>
            </g>
            <rect class="cls-1" x="35.4" y="16.3" width="3.6" height="0.9"/>
          </g>
        </g>
        <circle cx="34.4" cy="17.2" r="0.6"/>
        <circle cx="40" cy="17.2" r="0.6"/>
      </g>
    </g>
    <text class="cls-3" transform="translate(20.09 54.86)">autoklíče</text>
    <g>
      <text class="cls-4" transform="translate(7.18 73.28)">bla la bla bla lblalakal</text>
      <text class="cls-4" transform="translate(7.01 80.53)">bla la bla bla lblalakal</text>
    </g>
  </g>
</svg>
