<svg id="Vrstva_1" data-name="Vrstva 1" xmlns="http://www.w3.org/2000/svg" viewBox="0 0 86.2 22.65">
  <defs>
    <style>
      .cls-1, .cls-3, .cls-5 {
        fill: #231f20;
      }

      .cls-2 {
        fill: #facc48;
      }

      .cls-3, .cls-5, .cls-6 {
        isolation: isolate;
        font-family: Arial-Black, Arial Black;
      }

      .cls-3 {
        font-size: 12.4px;
      }

      .cls-4 {
        letter-spacing: -0.01em;
      }

      .cls-5 {
        font-size: 7.74px;
      }

      .cls-6 {
        font-size: 6.5px;
        fill: #f21d2f;
      }
    </style>
  </defs>
  <title>samonil</title>
  <g>
    <g>
      <g>
        <path class="cls-1" d="M230.9,162.4a.44.44,0,0,0,.1-.5c-.1-.7-.3-3,1.7-3.9a3.07,3.07,0,0,1,4,1c1.7,2.3-.3,4.5-1.6,4.9a4.36,4.36,0,0,1-2.3-.1l-.1.4c-.1.2-.2.4-.4.4s-.5.1-.8.1a.43.43,0,0,0-.4.4l-.4.9c0,.2-.2.3-.4.3l-.6.2c-.3.1-.5.3-.4.6h0a.55.55,0,0,1-.4.6l-.3.1c-.2.1-.3.2-.3.4v.1c-.1.3-.3.5-.6.4l-1.3-.3c-.3-.1-.5-.3-.4-.6v-.3c0-.1.1-.2.1-.3Z" transform="translate(-217.49 -152.6)"/>
        <circle class="cls-1" cx="16.61" cy="8.2" r="3.3"/>
      </g>
      <path class="cls-1" d="M224.6,168.8a.37.37,0,0,1,.6,0c.6.5,1.7,1.8,1.2,3.2a2.93,2.93,0,0,1-3.3,1.9,2.12,2.12,0,0,1-.7-.3.45.45,0,0,0-.5,0,10.22,10.22,0,0,1-1.7,1.3c-1,.8-2.9-1.9-2.7-4.5s2.8-3.1,3.4-4.8.4-3,.7-5.1a3.73,3.73,0,0,1,1.5-2.9c1.5-1.4,2.9-2.6,2.9-2.6a4,4,0,0,1,2.8-1.1c1.5.4,1.6.4,2.2.3a2.87,2.87,0,0,0,1.6-.6c.8-.5,1.3-1,1.6-1,.5,0,3.9,1.4,3.9,2.1,0,.5,0,3.2-.5,3a4.59,4.59,0,0,1-1.4-.7c-.1-.1-.1-.4-.1-.5l.1-.8c0-.2,0-.3-.2-.4-.4-.3-1.3-1-1.9-.7a14.21,14.21,0,0,1-2.3,1.3c-1,.2-2.7-.5-3.8-.1-1.6.5-4.4,3.1-4.8,4.5a27.11,27.11,0,0,0-.4,4.2h0a7.27,7.27,0,0,1-.7,2.3c-.5.8-2.6,2-3.1,3.4-.3.8.3,1.8.6,2.4a.49.49,0,0,0,.7.1Z" transform="translate(-217.49 -152.6)"/>
      <circle class="cls-1" cx="6.91" cy="19" r="2.9"/>
    </g>
    <path class="cls-2" d="M225.4,168l-2.5-2.5a12.89,12.89,0,0,1-1.3,1.9c-.5.5-2.6,2.2-2.7,3.4a2.18,2.18,0,0,0,.9,2.2,18.4,18.4,0,0,0,2.5-2.1Z" transform="translate(-217.49 -152.6)"/>
    <text class="cls-3" transform="translate(21.56 12.23)"><tspan class="cls-4">A</tspan><tspan x="9.52" y="0">utoklíče</tspan></text>
    <text class="cls-5" transform="translate(12.29 20.28)">Jiří Šamonil</text>
    <text class="cls-6" transform="translate(64.72 19.81)">24/7</text>
    <circle class="cls-2" cx="17.61" cy="7.1" r="0.9"/>
  </g>
</svg>
